<?xml version="1.0" standalone="no"?>
<!DOCTYPE svg PUBLIC "-//W3C//DTD SVG 1.1//EN" "http://www.w3.org/Graphics/SVG/1.1/DTD/svg11.dtd" >
<svg xmlns="http://www.w3.org/2000/svg">
<metadata></metadata>
<defs>
<font id="alright_sansbold" horiz-adv-x="1257" >
<font-face units-per-em="2048" ascent="1556" descent="-492" />
<missing-glyph horiz-adv-x="489" />
<glyph unicode="&#xfb01;" horiz-adv-x="1355" d="M33 872v209h174v47q0 224 124 329.5t374 105.5q127 0 259 -35.5t232 -93.5l-109 -195q-77 41 -173 69.5t-183 28.5q-120 0 -171.5 -50.5t-51.5 -164.5v-41h276v-209h-276v-872h-301v872h-174zM928 0v1083h301v-1083h-301z" />
<glyph unicode="&#xfb02;" horiz-adv-x="1376" d="M33 872v209h174v47q0 218 136.5 327.5t389.5 109.5q516 0 516 -445v-1120h-301v1124q0 108 -51.5 160.5t-167.5 52.5q-117 0 -169 -52.5t-52 -160.5v-43h280v-209h-280v-872h-301v872h-174z" />
<glyph unicode="&#xfb03;" horiz-adv-x="2068" d="M33 872v209h174v45q0 215 119.5 318.5t341.5 103.5q201 0 370 -96q123 111 379 111q126 0 258 -35.5t232 -93.5l-109 -195q-75 41 -171.5 69.5t-182.5 28.5q-120 0 -171.5 -50.5t-51.5 -164.5v-41h274v-209h-274v-872h-301v872h-412v-872h-301v872h-174zM508 1081h412v47 q0 88 16 148q-103 53 -234 53q-102 0 -148 -49t-46 -147v-52zM1638 0v1083h301v-1083h-301z" />
<glyph unicode="&#xfb04;" horiz-adv-x="2088" d="M33 872v209h174v45q0 215 119.5 318.5t341.5 103.5q205 0 379 -100q135 117 397 117q516 0 516 -445v-1120h-301v1124q0 108 -51.5 160.5t-167.5 52.5q-117 0 -168 -52t-51 -161v-43h278v-209h-278v-872h-301v872h-412v-872h-301v872h-174zM508 1081h412v47q0 78 18 146 q-101 55 -236 55q-102 0 -148 -49t-46 -147v-52z" />
<glyph horiz-adv-x="2048" />
<glyph horiz-adv-x="2048" />
<glyph unicode="&#xd;" horiz-adv-x="2048" />
<glyph unicode=" "  horiz-adv-x="489" />
<glyph unicode="&#x09;" horiz-adv-x="489" />
<glyph unicode="&#xa0;" horiz-adv-x="489" />
<glyph unicode="!" horiz-adv-x="569" d="M131 0v268h307v-268h-307zM131 1157v277h305v-277l-76 -713h-153z" />
<glyph unicode="&#x22;" horiz-adv-x="929" d="M88 825v609h311l-141 -609h-170zM537 825v609h311l-141 -609h-170z" />
<glyph unicode="#" horiz-adv-x="1390" d="M59 252v205h258l39 241h-231v207h266l41 250h234l-43 -250h247l41 250h230l-41 -250h229v-207h-262l-39 -241h238v-205h-271l-41 -252h-233l41 252h-248l-41 -252h-229l41 252h-226zM549 457h248l39 241h-248z" />
<glyph unicode="$" horiz-adv-x="1167" d="M84 109l133 208q162 -98 328 -110v266q-179 42 -256 78q-182 86 -187 263v11q0 145 113.5 241.5t312.5 111.5v176h142v-178q191 -12 368 -95l-112 -211q-137 64 -275 80v-256q54 -12 87 -20.5t84 -25.5t83 -34.5t69.5 -45.5t58.5 -60.5t35.5 -78t14.5 -99.5 q0 -144 -105.5 -240t-307.5 -113v-249h-142v247q-250 15 -444 134zM383 842q0 -46 41.5 -74t120.5 -49v233q-81 -6 -121.5 -35.5t-40.5 -74.5zM651 207q158 17 158 115q0 46 -40 73.5t-118 50.5v-239z" />
<glyph unicode="%" horiz-adv-x="1658" d="M84 864q0 136 96 224t240 88q143 0 238.5 -88t95.5 -224q0 -141 -94 -229t-240 -88t-241 88t-95 229zM274 864q0 -71 40.5 -116.5t105.5 -45.5q66 0 105.5 45t39.5 117q0 67 -40 110.5t-105 43.5q-64 0 -105 -44t-41 -110zM289 0l887 1155h192l-887 -1155h-192zM905 299 q0 135 96 223t240 88q142 0 238 -88t96 -223q0 -141 -94 -229t-240 -88q-147 0 -241.5 88t-94.5 229zM1094 299q0 -71 40 -116.5t107 -45.5q65 0 105 45.5t40 116.5q0 67 -40.5 111.5t-104.5 44.5q-65 0 -106 -44.5t-41 -111.5z" />
<glyph unicode="&#x26;" horiz-adv-x="1536" d="M74 406q0 132 76 237t204 178q-96 131 -96 271q0 156 120.5 261t305.5 105q241 0 418 -192l-187 -160q-116 119 -227 119q-67 0 -107 -40t-40 -98q0 -94 123 -223q165 -162 395 -346q51 121 51 260h264q0 -226 -108 -416q209 -149 243 -172l-161 -204q-160 110 -246 174 q-211 -185 -504 -185q-120 0 -220.5 35.5t-166 95t-101.5 137t-36 163.5zM350 432q0 -96 72.5 -155.5t195.5 -59.5q159 0 283 94q-234 188 -407 355q-144 -89 -144 -234z" />
<glyph unicode="'" horiz-adv-x="477" d="M88 825v609h311l-141 -609h-170z" />
<glyph unicode="(" horiz-adv-x="841" d="M109 567q0 551 348 979h323q-77 -85 -142 -183t-121 -220t-88 -270.5t-32 -305.5q0 -156 32 -304t88 -270t121 -220t142 -183h-321q-350 426 -350 977z" />
<glyph unicode=")" horiz-adv-x="841" d="M61 -410q77 85 142 183t121 220t88 270t32 304q0 157 -32 305.5t-88 270.5t-121 220t-142 183h324q348 -428 348 -979t-350 -977h-322z" />
<glyph unicode="*" horiz-adv-x="866" d="M86 1034l4 205l242 -35l4 4l-96 222l178 49l49 -234l6 -2l182 148l113 -160l-211 -98v-9l203 -125l-123 -149l-172 170l-6 -2l-68 -240l-172 64l111 221l-4 2z" />
<glyph unicode="+" horiz-adv-x="1259" d="M78 428v248h416v426h274v-426h414v-248h-414v-428h-274v428h-416z" />
<glyph unicode="," horiz-adv-x="503" d="M82 -193q73 27 111 77.5t38 115.5h-135v313h312v-239q0 -157 -64.5 -246.5t-200.5 -134.5z" />
<glyph unicode="-" horiz-adv-x="788" d="M76 426v252h637v-252h-637z" />
<glyph unicode="." horiz-adv-x="501" d="M96 0v313h312v-313h-312z" />
<glyph unicode="/" horiz-adv-x="1138" d="M-25 -410l902 1956h286l-901 -1956h-287z" />
<glyph unicode="0" horiz-adv-x="1392" d="M94 580q0 180 82 318t218 210t302 72t302 -72t218 -210t82 -318q0 -182 -82 -321.5t-218 -211.5t-302 -72t-302 72t-218 211.5t-82 321.5zM408 580q0 -159 79 -257t209 -98q129 0 209 98.5t80 256.5q0 155 -80 252.5t-209 97.5q-130 0 -209 -97t-79 -253z" />
<glyph unicode="1" horiz-adv-x="817" d="M23 1008l401 161h223v-1169h-311v868l-215 -80z" />
<glyph unicode="2" d="M113 997q254 183 546 183q240 0 374 -100t134 -263q0 -79 -35 -143t-92.5 -107t-127.5 -78t-143.5 -63t-137 -54.5t-112 -60t-64.5 -71.5h694v-240h-1024l-2 55q-5 117 33.5 210t103 151.5t144 103.5t159.5 77t146.5 61t108.5 65.5t42 81.5q0 60 -53 97.5t-150 37.5 q-203 0 -403 -149z" />
<glyph unicode="3" d="M74 -184l112 221q195 -100 375 -100q149 0 239.5 59.5t90.5 159.5q0 186 -287 186h-209v227h199q250 0 250 191q0 78 -66.5 129t-185.5 51q-167 0 -352 -129l-142 203q125 81 247.5 124.5t270.5 43.5q241 0 389 -108t148 -283q0 -211 -207 -310q256 -105 256 -342 q0 -107 -51 -192.5t-139 -140t-201.5 -83t-241.5 -28.5q-250 0 -495 121z" />
<glyph unicode="4" horiz-adv-x="1361" d="M76 227l743 928h299v-922h185v-231h-185v-281h-295v281h-651zM371 233h452v592z" />
<glyph unicode="5" horiz-adv-x="1232" d="M76 -182l119 229q173 -100 366 -100q131 0 212 66.5t81 176.5q0 99 -68 160.5t-178 61.5q-112 0 -258 -58l-178 107l31 694h870v-229h-594l-14 -334q118 49 254 49q120 0 219.5 -51t162 -153t62.5 -238q0 -118 -49.5 -215t-133.5 -159t-194 -96t-233 -34q-249 0 -477 123 z" />
<glyph unicode="6" horiz-adv-x="1308" d="M94 678q0 162 37 294t100 221t150 149.5t183 88t202 27.5q204 0 397 -102l-119 -207q-140 70 -280 70q-153 0 -247 -106.5t-109 -303.5q68 55 163 89t191 34q208 0 333.5 -122.5t125.5 -338.5q0 -100 -39 -190t-108.5 -158t-174.5 -108t-229 -40q-118 0 -214.5 36 t-163 100t-111.5 152.5t-66 192.5t-21 222zM410 596q6 -183 73 -284t195 -101q107 0 173.5 74t66.5 184q0 114 -59 182t-165 68q-79 0 -153.5 -34t-130.5 -89z" />
<glyph unicode="7" horiz-adv-x="1181" d="M78 905v250h1028v-219l-539 -1215h-327l548 1184h-710z" />
<glyph unicode="8" horiz-adv-x="1384" d="M94 383q0 127 86 222.5t221 142.5q-106 41 -177.5 124.5t-71.5 188.5q0 123 71 214t193 137t278 46q155 0 276.5 -46t192 -137t70.5 -214q0 -105 -71.5 -188.5t-178.5 -124.5q136 -47 222.5 -142.5t86.5 -222.5q0 -128 -78 -221.5t-212 -140t-308 -46.5 q-175 0 -309.5 46.5t-212.5 140t-78 221.5zM401 397q0 -91 82 -144.5t211 -53.5q127 0 208 53.5t81 144.5q0 90 -82.5 153.5t-206.5 78.5q-127 -15 -210 -78.5t-83 -153.5zM461 1059q0 -84 62.5 -139.5t170.5 -65.5q107 10 168.5 65.5t61.5 139.5q0 77 -65.5 126.5 t-164.5 49.5q-102 0 -167.5 -49t-65.5 -127z" />
<glyph unicode="9" horiz-adv-x="1310" d="M84 682q0 101 38.5 191t108 157.5t174 107.5t228.5 40q120 0 217.5 -36t165 -100t113.5 -152.5t67 -192.5t21 -222q0 -162 -37 -294.5t-99.5 -222t-149 -150t-182.5 -88t-202 -27.5q-215 0 -414 119l129 204q124 -82 287 -82q153 0 246 105.5t106 302.5 q-69 -55 -160.5 -89t-185.5 -34q-211 0 -341 124t-130 339zM387 684q0 -111 64 -179.5t172 -68.5q157 0 276 119q-6 183 -74.5 285t-197.5 102q-110 0 -175 -73.5t-65 -184.5z" />
<glyph unicode=":" horiz-adv-x="501" d="M96 0v313h312v-313h-312zM96 788v314h312v-314h-312z" />
<glyph unicode=";" horiz-adv-x="503" d="M82 -193q73 27 111 77.5t38 115.5h-135v313h312v-239q0 -157 -64.5 -246.5t-200.5 -134.5zM96 788v314h312v-314h-312z" />
<glyph unicode="&#x3c;" horiz-adv-x="1232" d="M74 420v266l1056 416v-301l-702 -250l702 -254v-297z" />
<glyph unicode="=" horiz-adv-x="1259" d="M78 174v248h1104v-248h-1104zM78 680v248h1104v-248h-1104z" />
<glyph unicode="&#x3e;" horiz-adv-x="1232" d="M102 0v297l703 254l-703 250v301l1057 -416v-266z" />
<glyph unicode="?" horiz-adv-x="1148" d="M70 1239q213 219 495 219q224 0 359 -102.5t135 -280.5q0 -74 -23.5 -134.5t-60.5 -101.5t-82.5 -76t-91 -65t-83.5 -60t-62.5 -69.5t-26.5 -85.5l-4 -39h-224q-8 36 -8 82q0 69 20.5 124t53 91t71.5 66t78.5 55.5t72 51.5t53 61.5t20.5 79.5q0 71 -57.5 115t-145.5 44 q-164 0 -311 -141zM360 0v268h308v-268h-308z" />
<glyph unicode="@" horiz-adv-x="1689" d="M125 582q0 151 58.5 288.5t157.5 237t236.5 158.5t288.5 59q196 0 356.5 -88t252.5 -242.5t92 -343.5q0 -116 -38.5 -211t-100 -152t-133 -87.5t-142.5 -30.5q-94 0 -151.5 37.5t-79.5 99.5q-93 -108 -222 -108q-103 0 -173 75.5t-70 204.5q0 67 15.5 135.5t48.5 132.5 t78.5 114t110.5 80t140 30q117 0 184 -97l37 76h178l-137 -485q-23 -85 -1.5 -126.5t83.5 -41.5q95 0 173.5 96t78.5 258q0 155 -75.5 281.5t-208 198t-294.5 71.5q-126 0 -241 -49t-198 -132t-132 -198t-49 -241q0 -125 49 -239.5t132 -197.5t198 -132.5t241 -49.5 q189 0 346 107l70 -101q-190 -129 -418 -129q-202 0 -372.5 99.5t-269.5 270t-99 372.5zM666 492q0 -64 25.5 -99t74.5 -35q51 0 93.5 38.5t62.5 109.5l69 250q-42 49 -112 49q-63 0 -113.5 -51.5t-75 -122.5t-24.5 -139z" />
<glyph unicode="A" horiz-adv-x="1460" d="M35 0l518 1434h352l518 -1434h-331l-91 268h-544l-88 -268h-334zM535 508h387l-193 582h-4z" />
<glyph unicode="B" horiz-adv-x="1386" d="M139 0v1434h602q250 0 378 -105t128 -280q0 -214 -215 -306q125 -40 196.5 -123t71.5 -210q0 -196 -142 -303t-388 -107h-631zM446 248h318q106 0 166.5 48t60.5 140q0 89 -61 135.5t-166 46.5h-318v-370zM446 836h271q106 0 162.5 48t56.5 130q0 78 -56.5 125t-162.5 47 h-271v-350z" />
<glyph unicode="C" horiz-adv-x="1443" d="M84 725q0 157 55.5 293t153.5 233t237 152t301 55q292 0 521 -182l-168 -213q-166 133 -346 133q-200 0 -320.5 -128.5t-120.5 -342.5q0 -222 119.5 -354.5t321.5 -132.5t354 149l184 -197q-232 -215 -555 -215q-162 0 -299.5 56t-233.5 155t-150 238t-54 301z" />
<glyph unicode="D" horiz-adv-x="1480" d="M139 0v1434h471q381 0 585 -187t204 -524q0 -348 -198.5 -535.5t-590.5 -187.5h-471zM449 252h184q222 0 337 123.5t115 345.5q0 214 -118.5 337.5t-333.5 123.5h-184v-930z" />
<glyph unicode="E" horiz-adv-x="1298" d="M139 0v1434h1045v-271h-735v-315h655v-240h-655v-338h743v-270h-1053z" />
<glyph unicode="F" horiz-adv-x="1269" d="M139 0v1434h1028v-271h-716v-336h618v-254h-618v-573h-312z" />
<glyph unicode="G" horiz-adv-x="1499" d="M84 725q0 207 90.5 373t262 263t394.5 97q288 0 529 -176l-162 -209q-173 123 -358 123q-199 0 -320 -132t-121 -339q0 -224 117.5 -355.5t323.5 -131.5q147 0 250 61v287h-324v211h606v-656q-228 -166 -543 -166q-224 0 -394 95.5t-260.5 265.5t-90.5 389z" />
<glyph unicode="H" horiz-adv-x="1458" d="M139 0v1434h312v-574h559v574h309v-1434h-309v594h-559v-594h-312z" />
<glyph unicode="I" horiz-adv-x="587" d="M139 0v1434h312v-1434h-312z" />
<glyph unicode="J" horiz-adv-x="1171" d="M66 258l233 152q89 -162 233 -162q94 0 145.5 60.5t51.5 170.5v955h309v-961q0 -242 -130 -370t-359 -128q-155 0 -278 72.5t-205 210.5z" />
<glyph unicode="K" horiz-adv-x="1417" d="M139 0v1434h312v-670l544 670h342l-448 -535l493 -899h-350l-342 662l-239 -287v-375h-312z" />
<glyph unicode="L" horiz-adv-x="1232" d="M139 0v1434h312v-1166h712v-268h-1024z" />
<glyph unicode="M" horiz-adv-x="1763" d="M139 0v1434h312l432 -613l434 613h307v-1434h-295v991l-448 -618l-447 618v-991h-295z" />
<glyph unicode="N" horiz-adv-x="1507" d="M139 0v1434h295l639 -945v945h293v-1434h-293l-639 940v-940h-295z" />
<glyph unicode="O" horiz-adv-x="1654" d="M84 721q0 159 55.5 296t153 234t235.5 152t299 55q215 0 385 -94t264.5 -262t94.5 -381q0 -215 -94.5 -385t-264.5 -265.5t-385 -95.5q-214 0 -384 95.5t-264.5 266t-94.5 384.5zM399 721q0 -218 119.5 -350.5t308.5 -132.5q191 0 310.5 132.5t119.5 350.5 q0 214 -119.5 345.5t-310.5 131.5q-190 0 -309 -131.5t-119 -345.5z" />
<glyph unicode="P" horiz-adv-x="1386" d="M139 0v1434h600q120 0 215.5 -25.5t157.5 -68.5t103.5 -102t59 -123.5t17.5 -135.5t-17.5 -135t-59 -124t-103.5 -104t-157.5 -70t-213.5 -26h-290v-520h-312zM451 762h286q121 0 183.5 59t62.5 154q0 96 -62.5 153.5t-181.5 57.5h-288v-424z" />
<glyph unicode="Q" horiz-adv-x="1665" d="M84 721q0 159 55.5 296t153 234t235.5 152t299 55q215 0 385 -94t264.5 -262t94.5 -381q0 -272 -150 -467l162 -137l-156 -166l-167 149q-186 -125 -433 -125q-214 0 -384 95.5t-264.5 266t-94.5 384.5zM399 721q0 -218 119.5 -350.5t308.5 -132.5q127 0 222 59l-226 192 l144 160l225 -203q65 117 65 275q0 214 -119.5 345.5t-310.5 131.5q-190 0 -309 -131.5t-119 -345.5z" />
<glyph unicode="R" horiz-adv-x="1433" d="M139 0v1434h631q119 0 214.5 -25.5t157 -68.5t103 -102t59 -123.5t17.5 -135.5q0 -131 -66.5 -235.5t-195.5 -159.5l274 -584h-334l-221 535h-327v-535h-312zM451 762h315q119 0 181.5 59t62.5 154q0 96 -62.5 153.5t-179.5 57.5h-317v-424z" />
<glyph unicode="S" horiz-adv-x="1292" d="M78 133l147 242q216 -129 422 -129q113 0 173.5 42t60.5 113q0 43 -26.5 74t-71.5 51t-103 36.5t-122.5 33.5t-128.5 37.5t-122 53.5t-103 77t-71.5 112.5t-26.5 155.5q0 183 142.5 304.5t384.5 121.5q261 0 516 -121l-115 -243q-189 94 -387 94q-100 0 -159.5 -43 t-59.5 -109q0 -47 33.5 -80.5t87.5 -51.5t123.5 -37.5t142.5 -37t142.5 -51t123.5 -77.5t87.5 -120t33.5 -175q0 -92 -35 -169.5t-102.5 -136.5t-174 -92t-241.5 -33q-154 0 -308 45t-263 113z" />
<glyph unicode="T" horiz-adv-x="1361" d="M53 1159v275h1258v-275h-475v-1159h-310v1159h-473z" />
<glyph unicode="U" horiz-adv-x="1476" d="M133 545v889h313v-889q0 -144 80 -224.5t213 -80.5q132 0 212.5 81t80.5 224v889h311v-889q0 -187 -78.5 -317t-212.5 -191.5t-313 -61.5t-313.5 61.5t-213.5 191.5t-79 317z" />
<glyph unicode="V" horiz-adv-x="1449" d="M35 1434h336l352 -1074h4l354 1074h336l-518 -1434h-350z" />
<glyph unicode="W" horiz-adv-x="2193" d="M45 1434h324l299 -992h4l284 992h283l285 -992h4l299 992h323l-452 -1434h-318l-280 973h-4l-283 -973h-317z" />
<glyph unicode="X" horiz-adv-x="1476" d="M51 0l490 731l-473 703h374l301 -461l301 461h367l-475 -703l491 -731h-372l-320 489l-317 -489h-367z" />
<glyph unicode="Y" horiz-adv-x="1439" d="M27 1434h358l334 -553h4l336 553h354l-536 -859v-575h-314v575z" />
<glyph unicode="Z" horiz-adv-x="1333" d="M94 0v231l725 926h-725v277h1133v-232l-723 -923h749v-279h-1159z" />
<glyph unicode="[" horiz-adv-x="890" d="M156 -410v1956h620v-211h-319v-1532h319v-213h-620z" />
<glyph unicode="\" horiz-adv-x="1138" d="M-25 1546h287l901 -1956h-286z" />
<glyph unicode="]" horiz-adv-x="890" d="M115 -197h319v1532h-319v211h620v-1956h-620v213z" />
<glyph unicode="^" horiz-adv-x="1216" d="M174 1151l291 381h287l290 -381h-245l-187 178l-192 -178h-244z" />
<glyph unicode="_" horiz-adv-x="1136" d="M0 -27h1137v-254h-1137v254z" />
<glyph unicode="`" horiz-adv-x="1204" d="M373 1460l202 133l261 -381h-189z" />
<glyph unicode="a" horiz-adv-x="1159" d="M80 266q0 348 635 393v97q0 131 -152 131q-127 0 -350 -109l-107 221q248 125 469 125q227 0 333 -100.5t106 -278.5v-458q0 -86 90 -86v-207q-156 0 -232.5 28.5t-121.5 106.5q-72 -77 -154 -115.5t-188 -38.5q-145 0 -236.5 80.5t-91.5 210.5zM379 301q0 -50 35 -80.5 t92 -30.5q127 0 209 93v211q-336 -20 -336 -193z" />
<glyph unicode="b" horiz-adv-x="1247" d="M129 0v1546h301v-569q63 69 144.5 108t170.5 39q196 0 311 -144.5t115 -416.5q0 -283 -115 -435.5t-306 -152.5q-189 0 -336 154l-19 -129h-266zM430 313q53 -57 105.5 -82.5t119.5 -25.5q106 0 160.5 95t54.5 261q0 334 -215 334q-122 0 -225 -115v-467z" />
<glyph unicode="c" horiz-adv-x="1079" d="M74 557q0 172 72.5 302t199 197.5t287.5 67.5q215 0 389 -135l-152 -194q-111 86 -229 86q-113 0 -188.5 -86.5t-75.5 -237.5q0 -159 75 -249.5t189 -90.5q69 0 122 22.5t109 67.5l164 -174q-180 -158 -403 -158q-245 0 -402 156.5t-157 425.5z" />
<glyph unicode="d" horiz-adv-x="1245" d="M76 563q0 272 115.5 416.5t312.5 144.5q89 0 170.5 -39t144.5 -108v569h301v-1546h-266l-18 129q-147 -154 -338 -154q-192 0 -307 152.5t-115 435.5zM377 561q0 -166 54.5 -261t160.5 -95q68 0 122 25.5t105 82.5v467q-103 115 -227 115q-215 0 -215 -334z" />
<glyph unicode="e" horiz-adv-x="1196" d="M76 557q0 171 74.5 302t199 199t277.5 68q231 0 360 -137.5t129 -363.5q0 -78 -10 -133h-725q24 -279 270 -279q153 0 305 94l125 -190q-207 -144 -452 -144q-248 0 -400.5 156t-152.5 428zM387 664h444q0 112 -47 178.5t-149 66.5q-94 0 -160.5 -63.5t-87.5 -181.5z" />
<glyph unicode="f" horiz-adv-x="851" d="M33 872v211h174v56q0 115 33 199t95 132.5t142 71.5t182 23q123 0 250 -49l-71 -205q-91 26 -162 26q-168 0 -168 -194v-62h276v-209h-276v-872h-301v872h-174z" />
<glyph unicode="g" horiz-adv-x="1218" d="M33 -141q0 142 160 227q-68 62 -68 147q0 114 117 183q-160 113 -160 307q0 179 135 290t340 111q182 0 313 -94q122 94 310 94v-198q-122 0 -197 -21q45 -82 45 -182q0 -94 -39.5 -171t-106 -126.5t-150.5 -76.5t-175 -27q-85 0 -168 22q-43 -18 -43 -61q0 -40 64 -58 t235 -24q250 -9 377 -83t127 -227q0 -154 -140 -237.5t-421 -83.5q-265 0 -410 73t-145 216zM313 -129q0 -59 63 -87t204 -28q150 0 221 25t71 78q0 55 -55 76.5t-209 27.5q-119 3 -219 29q-76 -45 -76 -121zM369 723q0 -92 52 -147.5t136 -55.5q85 0 136.5 55.5t51.5 147.5 t-51.5 148.5t-136.5 56.5q-84 0 -136 -56.5t-52 -148.5z" />
<glyph unicode="h" horiz-adv-x="1226" d="M129 0v1546h301v-573q147 151 330 151q350 0 350 -397v-727h-301v735q0 166 -143 166q-132 0 -236 -129v-772h-301z" />
<glyph unicode="i" horiz-adv-x="557" d="M129 0v1083h301v-1083h-301zM129 1278v258h301v-258h-301z" />
<glyph unicode="j" horiz-adv-x="581" d="M-152 -389l64 221q62 -20 115 -20q64 0 94.5 36.5t30.5 124.5v1110h301v-1093q0 -420 -383 -420q-106 0 -222 41zM152 1276v260h301v-260h-301z" />
<glyph unicode="k" horiz-adv-x="1198" d="M129 0v1546h301v-928l401 482h316l-340 -389l367 -711h-340l-226 483l-178 -202v-281h-301z" />
<glyph unicode="l" horiz-adv-x="561" d="M131 0v1546h301v-1546h-301z" />
<glyph unicode="m" horiz-adv-x="1855" d="M125 0v1100h285l12 -119q68 65 153.5 105t169.5 40q212 0 291 -161q167 161 361 161q168 0 254 -103.5t86 -289.5v-733h-299v739q0 160 -133 160q-118 0 -226 -117q4 -50 4 -71v-711h-301v739q0 160 -133 160q-62 0 -121.5 -33t-103.5 -92v-774h-299z" />
<glyph unicode="n" horiz-adv-x="1222" d="M125 0v1100h283l14 -127q65 68 151 110.5t183 42.5q350 0 350 -399v-727h-301v735q0 77 -35 121.5t-108 44.5q-134 0 -238 -129v-772h-299z" />
<glyph unicode="o" d="M76 561q0 167 72.5 296t198.5 198t284 69q117 0 218 -40.5t174 -113t115 -178.5t42 -231q0 -269 -150.5 -427.5t-398.5 -158.5q-251 0 -403 158.5t-152 427.5zM379 559q0 -165 66 -261.5t186 -96.5q116 0 181 96.5t65 261.5q0 152 -68 245t-178 93q-114 0 -183 -93 t-69 -245z" />
<glyph unicode="p" horiz-adv-x="1243" d="M127 -410v1510h270l23 -133q137 157 321 157q196 0 311 -144.5t115 -416.5q0 -283 -114.5 -435.5t-304.5 -152.5q-182 0 -324 142v-527h-297zM424 313q53 -57 106.5 -82.5t120.5 -25.5q106 0 161.5 95t55.5 261q0 334 -217 334q-124 0 -227 -115v-467z" />
<glyph unicode="q" horiz-adv-x="1245" d="M76 563q0 272 115.5 416.5t312.5 144.5q184 0 321 -157l23 133h272v-1510h-299v527q-142 -142 -323 -142q-192 0 -307 152.5t-115 435.5zM377 561q0 -165 55 -260.5t160 -95.5q69 0 122.5 25.5t106.5 82.5v467q-106 115 -229 115q-107 0 -161 -85t-54 -249z" />
<glyph unicode="r" horiz-adv-x="907" d="M125 0v1100h276l21 -170q114 200 313 200q77 0 135 -22l-43 -274q-67 24 -147 24q-82 0 -142.5 -48.5t-113.5 -147.5v-662h-299z" />
<glyph unicode="s" horiz-adv-x="1042" d="M63 94l115 209q180 -100 340 -100q164 0 164 104q0 30 -20.5 51.5t-54.5 36t-79 26.5t-94 25t-98 29t-94 42t-79 60t-54.5 86.5t-20.5 118.5q0 160 126 251t310 91q202 0 410 -96l-107 -209q-75 37 -157.5 57.5t-141.5 20.5q-69 0 -108 -26t-39 -76q0 -36 32.5 -60.5 t84.5 -39.5t115 -29.5t126 -38t115 -58t84.5 -96.5t32.5 -147q0 -166 -124 -258.5t-325 -92.5q-241 0 -459 119z" />
<glyph unicode="t" horiz-adv-x="894" d="M33 887v213h174v274h301v-274h301v-213h-301v-547q0 -123 100 -123q82 0 150 49l110 -180q-65 -51 -149 -81t-172 -30q-173 0 -256.5 87.5t-83.5 271.5v553h-174z" />
<glyph unicode="u" horiz-adv-x="1224" d="M119 373v727h301v-733q0 -166 141 -166q131 0 240 125v774h301v-1100h-279l-18 127q-65 -67 -153 -109.5t-183 -42.5q-350 0 -350 398z" />
<glyph unicode="v" horiz-adv-x="1110" d="M29 1100h297l233 -774h4l234 774h284l-366 -1100h-322z" />
<glyph unicode="w" horiz-adv-x="1730" d="M29 1100h293l221 -713h4l198 713h242l201 -713h4l219 713h289l-359 -1100h-272l-203 676h-4l-203 -676h-272z" />
<glyph unicode="x" horiz-adv-x="1120" d="M37 0l348 557l-340 543h313l203 -342l201 342h313l-338 -543l344 -557h-305l-217 354l-217 -354h-305z" />
<glyph unicode="y" horiz-adv-x="1138" d="M18 -389l82 233q96 -34 150 -34q58 0 91 24t54 86l35 92l-399 1088h301l241 -725h5l239 725h291l-410 -1161q-39 -109 -83.5 -182t-98.5 -113.5t-112.5 -57t-135.5 -16.5q-125 0 -250 41z" />
<glyph unicode="z" horiz-adv-x="1069" d="M86 0v197l522 673h-508v230h875v-201l-516 -672h536v-227h-909z" />
<glyph unicode="{" horiz-adv-x="1013" d="M61 432v264h111q84 0 117 33t33 117v348q0 352 428 352h151v-213h-131q-81 0 -114 -32.5t-33 -110.5v-334q0 -230 -211 -291v-2q113 -37 162 -109.5t49 -183.5v-325q0 -77 33 -109.5t114 -32.5h131v-213h-151q-216 0 -322 88t-106 265v338q0 83 -33 117t-117 34h-111z " />
<glyph unicode="|" horiz-adv-x="657" d="M190 -410v1956h277v-1956h-277z" />
<glyph unicode="}" horiz-adv-x="1013" d="M113 -197h131q81 0 114 32.5t33 109.5v325q0 111 49 183.5t162 109.5v2q-211 61 -211 291v334q0 78 -33 110.5t-114 32.5h-131v213h151q428 0 428 -352v-348q0 -84 33 -117t117 -33h110v-264h-110q-84 0 -117 -34t-33 -117v-338q0 -177 -106 -265t-322 -88h-151v213z" />
<glyph unicode="~" horiz-adv-x="1179" d="M131 440q0 146 69.5 236t196.5 90q58 0 114 -24t93 -53t82.5 -53t85.5 -24q85 0 82 121h193q2 -16 2 -49q0 -147 -69.5 -236.5t-197.5 -89.5q-48 0 -92.5 16t-79 38.5t-66.5 45t-66 38.5t-66 16q-91 0 -84 -123h-195q-2 18 -2 51z" />
<glyph unicode="&#xa1;" horiz-adv-x="567" d="M131 -55l76 712h153l76 -712v-277h-305v277zM131 834v268h307v-268h-307z" />
<glyph unicode="&#xa2;" horiz-adv-x="1284" d="M90 586q0 124 45.5 233t127 189t202 126t264.5 46h29l43 178h155l-49 -199q154 -39 269 -131l-148 -197q-99 76 -192 101l-174 -717q34 -6 71 -6q167 0 299 129l172 -172q-203 -193 -475 -193q-42 0 -100 7l-62 -252h-151l69 284q-186 64 -290.5 218t-104.5 356zM377 586 q0 -113 48 -200.5t132 -133.5l164 692q-151 -5 -247.5 -104t-96.5 -254z" />
<glyph unicode="&#xa3;" horiz-adv-x="1298" d="M63 186q0 90 65.5 148.5t164.5 58.5q88 0 205 -55q-5 93 -64 184h-284v164h172q-58 100 -58 197q0 128 107.5 213.5t294.5 85.5q149 0 253.5 -58.5t163.5 -154.5l-215 -101q-31 44 -79 73.5t-105 29.5q-64 0 -99.5 -28.5t-35.5 -76.5q0 -40 18.5 -81.5t57.5 -102.5h284 v-158h-190q35 -82 35 -157q0 -79 -31 -146q91 -43 176 -43q71 0 99.5 46.5t13.5 129.5h248q40 -174 -38 -276.5t-245 -102.5q-173 0 -354 115q-64 -55 -147.5 -85t-170.5 -30q-107 0 -174.5 59t-67.5 152zM209 186q0 -37 25 -59.5t67 -22.5q46 0 90 26.5t72 70.5 q-97 63 -162 63q-41 0 -66.5 -21t-25.5 -57z" />
<glyph unicode="&#xa4;" horiz-adv-x="1398" d="M125 104l117 125q-109 146 -109 334q0 185 109 336l-117 123l125 117l110 -121q150 115 340 115q186 0 338 -113l113 119l125 -117l-119 -121q113 -152 113 -338q0 -187 -111 -336l117 -123l-125 -112l-111 117q-151 -113 -340 -113q-192 0 -340 113l-110 -117zM403 563 q0 -123 87 -209t212 -86q123 0 210 86t87 209q0 124 -87 211.5t-210 87.5q-124 0 -211.5 -87t-87.5 -212z" />
<glyph unicode="&#xa5;" horiz-adv-x="1261" d="M35 1155h352l242 -326h2l241 326h353l-443 -571h338v-156h-338v-106h338v-154h-338v-168h-305v168h-340v154h340v106h-340v156h340z" />
<glyph unicode="&#xa6;" horiz-adv-x="657" d="M190 371h277v-781h-277v781zM190 731v815h277v-815h-277z" />
<glyph unicode="&#xa7;" horiz-adv-x="1128" d="M117 455q0 118 116 207q-92 75 -92 202q0 150 120 234t335 84q106 0 215 -38.5t186 -105.5l-170 -161q-50 43 -115.5 67.5t-129.5 24.5q-75 0 -117.5 -26t-42.5 -73q0 -31 25.5 -55t67 -39t94.5 -31.5t108 -31.5t108 -40.5t94.5 -56.5t67 -81t25.5 -113q0 -115 -119 -207 q94 -74 94 -203q0 -149 -120 -233t-335 -84q-106 0 -215 38.5t-188 104.5l170 162q51 -43 117 -67.5t129 -24.5q77 0 119.5 25.5t42.5 72.5q0 31 -25.5 55.5t-67 39.5t-94.5 31.5t-108 31.5t-108 40.5t-94.5 56.5t-67 81t-25.5 113zM371 496q0 -30 15.5 -54.5t37 -40.5 t60.5 -31.5t69.5 -24t83 -23t82.5 -23.5q37 41 37 82q0 30 -15.5 54.5t-37.5 40t-61 31t-70.5 24.5t-82.5 23t-83 24q-35 -45 -35 -82z" />
<glyph unicode="&#xa8;" horiz-adv-x="1261" d="M279 1260v233h239v-233h-239zM748 1260v233h235v-233h-235z" />
<glyph unicode="&#xa9;" horiz-adv-x="1708" d="M113 582q0 151 58.5 288.5t157.5 237t236.5 158.5t288.5 59t288.5 -59t237 -158.5t158.5 -237t59 -288.5t-59 -288.5t-158.5 -237t-237 -158t-288.5 -58.5q-202 0 -372.5 99.5t-269.5 270t-99 372.5zM238 582q0 -167 82.5 -309.5t225 -226t310.5 -83.5q125 0 239.5 49.5 t197.5 132.5t132.5 197.5t49.5 239.5q0 126 -49.5 241t-132.5 198t-197.5 132t-239.5 49q-126 0 -240.5 -49t-197 -132t-131.5 -198t-49 -241zM449 580q0 171 117 287t304 116q176 0 312 -111l-123 -147q-96 76 -180 76q-90 0 -150.5 -62t-60.5 -159q0 -100 58.5 -160 t150.5 -60q105 0 186 78l131 -133q-135 -129 -326 -129t-305 113t-114 291z" />
<glyph unicode="&#xaa;" horiz-adv-x="802" d="M61 872q0 122 115.5 188.5t321.5 80.5v61q0 84 -107 84q-93 0 -241 -74l-70 154q161 84 317 84q151 0 223 -68t72 -186v-307q0 -58 64 -58v-141q-105 0 -155.5 17.5t-80.5 66.5q-95 -98 -229 -98q-101 0 -165.5 54.5t-64.5 141.5zM258 897q0 -33 24.5 -53.5t63.5 -20.5 q89 0 152 60v139q-240 -8 -240 -125z" />
<glyph unicode="&#xab;" horiz-adv-x="1337" d="M80 555l409 547l197 -148l-319 -399l319 -410l-197 -145zM633 555l409 547l197 -148l-319 -399l319 -410l-197 -145z" />
<glyph unicode="&#xac;" horiz-adv-x="1341" d="M113 918v237h1116v-618h-311v381h-805z" />
<glyph unicode="&#xad;" horiz-adv-x="788" d="M76 426v252h637v-252h-637z" />
<glyph unicode="&#xae;" horiz-adv-x="1708" d="M113 582q0 151 58.5 288.5t157.5 237t236.5 158.5t288.5 59t288.5 -59t237 -158.5t158.5 -237t59 -288.5t-59 -288.5t-158.5 -237t-237 -158t-288.5 -58.5q-202 0 -372.5 99.5t-269.5 270t-99 372.5zM238 582q0 -167 82.5 -309.5t225 -226t310.5 -83.5q125 0 239.5 49.5 t197.5 132.5t132.5 197.5t49.5 239.5q0 126 -49.5 241t-132.5 198t-197.5 132t-239.5 49q-126 0 -240.5 -49t-197 -132t-131.5 -198t-49 -241zM537 201v770h389q150 0 225.5 -76t75.5 -182q0 -69 -34 -128t-103 -91q12 -21 71.5 -145.5t73.5 -147.5h-227l-117 268h-139v-268 h-215zM752 616h143q61 0 89 29t28 68q0 41 -28 70.5t-89 29.5h-143v-197z" />
<glyph unicode="&#xaf;" horiz-adv-x="1247" d="M307 1284v184h672v-184h-672z" />
<glyph unicode="&#xb0;" horiz-adv-x="835" d="M66 1118q0 149 103.5 245.5t248.5 96.5q143 0 246.5 -96.5t103.5 -245.5q0 -153 -102 -246.5t-248 -93.5q-147 0 -249.5 93.5t-102.5 246.5zM246 1118q0 -75 51.5 -123.5t120.5 -48.5q71 0 121.5 48t50.5 124q0 75 -50.5 123.5t-121.5 48.5q-68 0 -120 -49t-52 -123z" />
<glyph unicode="&#xb1;" horiz-adv-x="1259" d="M78 0v186h416v312h-416v247h416v357h274v-357h414v-247h-414v-312h414v-186h-1104z" />
<glyph unicode="&#xb2;" horiz-adv-x="712" d="M57 1653q146 125 314 125q133 0 207.5 -63.5t74.5 -160.5q0 -57 -27 -102.5t-67.5 -72.5t-88.5 -53.5t-89.5 -45.5t-70.5 -47.5t-31 -61.5h364v-147h-557l-2 84q-1 64 19 116t53.5 86t74 61.5t81.5 48t75 39.5t55 42.5t21 50.5q0 32 -28.5 52t-80.5 20q-46 0 -96.5 -23.5 t-91.5 -62.5z" />
<glyph unicode="&#xb3;" horiz-adv-x="694" d="M51 1077l68 140q101 -58 194 -58q63 0 103.5 26t40.5 64q0 86 -127 86h-113v138h105q112 0 112 79q0 34 -26 55t-74 21q-89 0 -182 -67l-84 120q138 97 278 97q120 0 197.5 -55.5t77.5 -143.5q0 -60 -22.5 -97t-68.5 -67q115 -53 115 -168q0 -78 -46.5 -133t-118 -79.5 t-158.5 -24.5q-137 0 -271 67z" />
<glyph unicode="&#xb4;" horiz-adv-x="1204" d="M371 1212l262 381l201 -133l-275 -248h-188z" />
<glyph unicode="&#xb5;" horiz-adv-x="1224" d="M113 -410v1565h305v-799q7 -151 143 -151q137 0 244 123v827h307v-1155h-287l-12 106q-109 -122 -242 -122q-111 0 -170 53l-18 -447h-270z" />
<glyph unicode="&#xb6;" horiz-adv-x="1531" d="M109 995q0 67 17 128.5t55.5 118.5t95.5 99.5t143 67.5t192 25h768v-1434h-264v1229h-182v-1229h-264v557h-54q-129 0 -230 39.5t-159.5 104t-88 139.5t-29.5 155z" />
<glyph unicode="&#xb7;" horiz-adv-x="501" d="M96 395v314h312v-314h-312z" />
<glyph unicode="&#xb8;" horiz-adv-x="1204" d="M395 -352q101 78 172.5 177t85.5 204h172q-15 -293 -225 -484z" />
<glyph unicode="&#xb9;" horiz-adv-x="626" d="M70 1647l256 118h137v-741h-187v561l-139 -69z" />
<glyph unicode="&#xba;" horiz-adv-x="872" d="M51 1071q0 168 107 273.5t272 105.5q164 0 270.5 -105t106.5 -274q0 -182 -104 -288.5t-273 -106.5q-172 0 -275.5 106t-103.5 289zM248 1069q0 -110 47.5 -174t134.5 -64q83 0 129.5 64t46.5 174q0 100 -48.5 162.5t-127.5 62.5q-81 0 -131.5 -62.5t-50.5 -162.5z" />
<glyph unicode="&#xbb;" horiz-adv-x="1337" d="M98 145l320 410l-320 399l197 148l410 -547l-410 -555zM653 145l320 410l-320 399l197 148l410 -547l-410 -555z" />
<glyph unicode="&#xbc;" horiz-adv-x="1624" d="M115 1339l256 119h137v-741h-186v561l-140 -70zM201 0l1214 1434h193l-1213 -1434h-194zM987 274l361 465h186v-465h86v-137h-86v-137h-178v137h-312zM1161 274h195v269z" />
<glyph unicode="&#xbd;" horiz-adv-x="1755" d="M115 1339l256 119h137v-741h-186v561l-140 -70zM199 0l1214 1434h193l-1213 -1434h-194zM1155 629q146 125 313 125q133 0 208 -64t75 -160q0 -49 -20 -89.5t-52.5 -67.5t-72 -50t-79 -42t-72.5 -37.5t-55 -43t-24 -53.5h365v-147h-557l-2 84q-1 64 19 116t53.5 86 t74 61.5t81.5 48t75 39.5t55 42.5t21 50.5q0 32 -28.5 52t-80.5 20q-46 0 -96.5 -23.5t-91.5 -62.5z" />
<glyph unicode="&#xbe;" horiz-adv-x="1574" d="M55 770l68 139q99 -57 194 -57q63 0 103.5 26t40.5 64q0 86 -127 86h-113v137h105q112 0 112 80q0 34 -26 55t-74 21q-87 0 -182 -68l-84 121q136 96 278 96q120 0 197.5 -55.5t77.5 -142.5q0 -60 -22 -97t-68 -67q114 -53 114 -168q0 -78 -46.5 -133t-118 -80 t-158.5 -25q-135 0 -271 68zM156 0l1214 1434h193l-1213 -1434h-194zM948 274l361 465h186v-465h86v-137h-86v-137h-178v137h-311zM1122 274h195v269z" />
<glyph unicode="&#xbf;" horiz-adv-x="1128" d="M109 27q0 74 23.5 134.5t60.5 101.5t82.5 76t91 65t83.5 59.5t62.5 69t26.5 85.5l4 39h223q8 -36 8 -82q0 -69 -20.5 -124t-53 -91t-71.5 -66t-78 -55t-71.5 -51t-53 -61.5t-20.5 -79.5q0 -71 57.5 -115.5t144.5 -44.5q164 0 312 142l178 -166q-213 -219 -496 -219 q-224 0 -358.5 102.5t-134.5 280.5zM500 834v268h307v-268h-307z" />
<glyph unicode="&#xc0;" horiz-adv-x="1460" d="M35 0l518 1434h352l518 -1434h-331l-91 268h-544l-88 -268h-334zM406 1716l233 137l229 -307h-219zM535 508h387l-193 582h-4z" />
<glyph unicode="&#xc1;" horiz-adv-x="1460" d="M35 0l518 1434h352l518 -1434h-331l-91 268h-544l-88 -268h-334zM535 508h387l-193 582h-4zM592 1546l227 307l236 -137l-246 -170h-217z" />
<glyph unicode="&#xc2;" horiz-adv-x="1460" d="M35 0l518 1434h352l518 -1434h-331l-91 268h-544l-88 -268h-334zM344 1546l240 273h290l240 -273h-203l-180 133h-2l-182 -133h-203zM535 508h387l-193 582h-4z" />
<glyph unicode="&#xc3;" horiz-adv-x="1460" d="M35 0l518 1434h352l518 -1434h-331l-91 268h-544l-88 -268h-334zM369 1548q-15 133 46 210t173 77q46 0 87.5 -16.5t67 -36.5t56.5 -36.5t57 -16.5q36 0 53.5 23t12.5 65h168q15 -132 -46.5 -210.5t-175.5 -78.5q-45 0 -86.5 16.5t-67 36.5t-56.5 36.5t-58 16.5 q-35 0 -52 -22.5t-11 -63.5h-168zM535 508h387l-193 582h-4z" />
<glyph unicode="&#xc4;" horiz-adv-x="1460" d="M35 0l518 1434h352l518 -1434h-331l-91 268h-544l-88 -268h-334zM371 1565v235h237v-235h-237zM535 508h387l-193 582h-4zM852 1565v235h238v-235h-238z" />
<glyph unicode="&#xc5;" horiz-adv-x="1460" d="M35 0l508 1405q-60 66 -60 156q0 102 71.5 169.5t174.5 67.5q104 0 175 -67.5t71 -169.5q0 -92 -60 -158l508 -1403h-331l-91 268h-544l-88 -268h-334zM535 508h387l-193 582h-4zM602 1561q0 -51 33.5 -87.5t83.5 -39.5h20q50 3 83.5 39.5t33.5 87.5q0 55 -36.5 92 t-90.5 37q-53 0 -90 -37t-37 -92z" />
<glyph unicode="&#xc6;" horiz-adv-x="2168" d="M25 0l645 1434h1384v-271h-893l86 -311h727v-248h-657l92 -334h655v-270h-913l-70 268h-592l-112 -268h-352zM596 518h422l-160 623z" />
<glyph unicode="&#xc7;" horiz-adv-x="1443" d="M84 725q0 157 55.5 293t153.5 233t237 152t301 55q292 0 521 -182l-168 -213q-166 133 -346 133q-200 0 -320.5 -128.5t-120.5 -342.5q0 -222 119.5 -354.5t321.5 -132.5t354 149l184 -197q-216 -201 -516 -213q-29 -256 -221 -432l-205 103q90 71 157.5 158.5 t92.5 181.5q-272 43 -436 244t-164 493z" />
<glyph unicode="&#xc8;" horiz-adv-x="1298" d="M139 0v1434h1045v-271h-735v-315h655v-240h-655v-338h743v-270h-1053zM342 1716l233 137l230 -307h-219z" />
<glyph unicode="&#xc9;" horiz-adv-x="1298" d="M139 0v1434h1045v-271h-735v-315h655v-240h-655v-338h743v-270h-1053zM528 1546l228 307l235 -137l-246 -170h-217z" />
<glyph unicode="&#xca;" horiz-adv-x="1298" d="M139 0v1434h1045v-271h-735v-315h655v-240h-655v-338h743v-270h-1053zM283 1546l239 273h291l240 -273h-203l-180 133h-2l-183 -133h-202z" />
<glyph unicode="&#xcb;" horiz-adv-x="1298" d="M139 0v1434h1045v-271h-735v-315h655v-240h-655v-338h743v-270h-1053zM309 1565v235h238v-235h-238zM791 1565v235h237v-235h-237z" />
<glyph unicode="&#xcc;" horiz-adv-x="587" d="M-29 1716l234 137l229 -307h-219zM139 0v1434h312v-1434h-312z" />
<glyph unicode="&#xcd;" horiz-adv-x="587" d="M139 0v1434h312v-1434h-312zM158 1546l227 307l236 -137l-246 -170h-217z" />
<glyph unicode="&#xce;" horiz-adv-x="587" d="M-90 1546l240 273h290l240 -273h-203l-180 133h-2l-182 -133h-203zM139 0v1434h312v-1434h-312z" />
<glyph unicode="&#xcf;" horiz-adv-x="587" d="M-63 1565v235h237v-235h-237zM139 0v1434h312v-1434h-312zM418 1565v235h237v-235h-237z" />
<glyph unicode="&#xd0;" horiz-adv-x="1562" d="M29 633v178h192v623h471q381 0 585 -187t204 -524q0 -348 -198.5 -535.5t-590.5 -187.5h-471v633h-192zM530 252h185q222 0 337 123.5t115 345.5q0 214 -118.5 337.5t-333.5 123.5h-185v-371h322v-178h-322v-381z" />
<glyph unicode="&#xd1;" horiz-adv-x="1507" d="M139 0v1434h295l639 -945v945h293v-1434h-293l-639 940v-940h-295zM393 1548q-15 133 46 210t173 77q46 0 88 -16.5t67.5 -36.5t56.5 -36.5t57 -16.5q36 0 53 23t12 65h168q15 -132 -46 -210.5t-175 -78.5q-45 0 -86.5 16.5t-67 36.5t-56.5 36.5t-58 16.5 q-36 0 -53 -22.5t-11 -63.5h-168z" />
<glyph unicode="&#xd2;" horiz-adv-x="1654" d="M84 721q0 159 55.5 296t153 234t235.5 152t299 55q215 0 385 -94t264.5 -262t94.5 -381q0 -215 -94.5 -385t-264.5 -265.5t-385 -95.5q-214 0 -384 95.5t-264.5 266t-94.5 384.5zM399 721q0 -218 119.5 -350.5t308.5 -132.5q191 0 310.5 132.5t119.5 350.5 q0 214 -119.5 345.5t-310.5 131.5q-190 0 -309 -131.5t-119 -345.5zM506 1716l233 137l230 -307h-219z" />
<glyph unicode="&#xd3;" horiz-adv-x="1654" d="M84 721q0 159 55.5 296t153 234t235.5 152t299 55q215 0 385 -94t264.5 -262t94.5 -381q0 -215 -94.5 -385t-264.5 -265.5t-385 -95.5q-214 0 -384 95.5t-264.5 266t-94.5 384.5zM399 721q0 -218 119.5 -350.5t308.5 -132.5q191 0 310.5 132.5t119.5 350.5 q0 214 -119.5 345.5t-310.5 131.5q-190 0 -309 -131.5t-119 -345.5zM690 1546l228 307l235 -137l-246 -170h-217z" />
<glyph unicode="&#xd4;" horiz-adv-x="1654" d="M84 721q0 159 55.5 296t153 234t235.5 152t299 55q215 0 385 -94t264.5 -262t94.5 -381q0 -215 -94.5 -385t-264.5 -265.5t-385 -95.5q-214 0 -384 95.5t-264.5 266t-94.5 384.5zM399 721q0 -218 119.5 -350.5t308.5 -132.5q191 0 310.5 132.5t119.5 350.5 q0 214 -119.5 345.5t-310.5 131.5q-190 0 -309 -131.5t-119 -345.5zM442 1546l240 273h291l239 -273h-202l-181 133h-2l-182 -133h-203z" />
<glyph unicode="&#xd5;" horiz-adv-x="1654" d="M84 721q0 159 55.5 296t153 234t235.5 152t299 55q215 0 385 -94t264.5 -262t94.5 -381q0 -215 -94.5 -385t-264.5 -265.5t-385 -95.5q-214 0 -384 95.5t-264.5 266t-94.5 384.5zM399 721q0 -218 119.5 -350.5t308.5 -132.5q191 0 310.5 132.5t119.5 350.5 q0 214 -119.5 345.5t-310.5 131.5q-190 0 -309 -131.5t-119 -345.5zM467 1548q-15 133 46 210t173 77q46 0 87.5 -16.5t67 -36.5t56.5 -36.5t57 -16.5q36 0 53.5 23t12.5 65h168q15 -132 -46 -210.5t-175 -78.5q-57 0 -106.5 26.5t-89.5 53t-73 26.5q-35 0 -52 -22.5 t-11 -63.5h-168z" />
<glyph unicode="&#xd6;" horiz-adv-x="1654" d="M84 721q0 159 55.5 296t153 234t235.5 152t299 55q215 0 385 -94t264.5 -262t94.5 -381q0 -215 -94.5 -385t-264.5 -265.5t-385 -95.5q-214 0 -384 95.5t-264.5 266t-94.5 384.5zM399 721q0 -218 119.5 -350.5t308.5 -132.5q191 0 310.5 132.5t119.5 350.5 q0 214 -119.5 345.5t-310.5 131.5q-190 0 -309 -131.5t-119 -345.5zM469 1565v235h238v-235h-238zM950 1565v235h238v-235h-238z" />
<glyph unicode="&#xd7;" horiz-adv-x="1214" d="M119 227l311 326l-311 321l178 177l311 -326l312 326l178 -177l-312 -321l312 -326l-178 -174l-312 326l-311 -326z" />
<glyph unicode="&#xd8;" horiz-adv-x="1654" d="M84 721q0 159 55.5 296t153 234t235.5 152t299 55q232 0 406 -108l125 157l127 -102l-125 -152q101 -100 156 -236t55 -296q0 -215 -94.5 -385t-264.5 -265.5t-385 -95.5q-224 0 -405 107l-127 -156l-125 99l127 155q-102 99 -157.5 238t-55.5 303zM399 721 q0 -189 90 -315l578 722q-106 70 -240 70q-190 0 -309 -131.5t-119 -345.5zM588 309q103 -71 239 -71q191 0 310.5 132.5t119.5 350.5q0 182 -92 311z" />
<glyph unicode="&#xd9;" horiz-adv-x="1476" d="M133 545v889h313v-889q0 -144 80 -224.5t213 -80.5q132 0 212.5 81t80.5 224v889h311v-889q0 -187 -78.5 -317t-212.5 -191.5t-313 -61.5t-313.5 61.5t-213.5 191.5t-79 317zM414 1716l233 137l230 -307h-220z" />
<glyph unicode="&#xda;" horiz-adv-x="1476" d="M133 545v889h313v-889q0 -144 80 -224.5t213 -80.5q132 0 212.5 81t80.5 224v889h311v-889q0 -187 -78.5 -317t-212.5 -191.5t-313 -61.5t-313.5 61.5t-213.5 191.5t-79 317zM600 1546l227 307l236 -137l-246 -170h-217z" />
<glyph unicode="&#xdb;" horiz-adv-x="1476" d="M133 545v889h313v-889q0 -144 80 -224.5t213 -80.5q132 0 212.5 81t80.5 224v889h311v-889q0 -187 -78.5 -317t-212.5 -191.5t-313 -61.5t-313.5 61.5t-213.5 191.5t-79 317zM354 1546l240 273h291l239 -273h-202l-181 133h-2l-182 -133h-203z" />
<glyph unicode="&#xdc;" horiz-adv-x="1476" d="M133 545v889h313v-889q0 -144 80 -224.5t213 -80.5q132 0 212.5 81t80.5 224v889h311v-889q0 -187 -78.5 -317t-212.5 -191.5t-313 -61.5t-313.5 61.5t-213.5 191.5t-79 317zM381 1565v235h237v-235h-237zM862 1565v235h238v-235h-238z" />
<glyph unicode="&#xdd;" horiz-adv-x="1439" d="M27 1434h358l334 -553h4l336 553h354l-536 -859v-575h-314v575zM584 1546l227 307l236 -137l-246 -170h-217z" />
<glyph unicode="&#xde;" horiz-adv-x="1378" d="M139 0v1434h312v-234h237q153 0 268.5 -35.5t186 -100t105 -149t34.5 -188.5q0 -107 -34 -193.5t-104 -152t-185 -101.5t-269 -36h-239v-244h-312zM451 487h237q137 0 211 62t74 178q0 111 -76 170t-209 59h-237v-469z" />
<glyph unicode="&#xdf;" horiz-adv-x="1363" d="M123 0v1090q0 151 71 260t190 162t273 53q234 0 384.5 -121t150.5 -316q0 -117 -62.5 -199t-168.5 -128v-2q146 -36 235.5 -132.5t89.5 -246.5q0 -137 -67.5 -239t-175 -151.5t-238.5 -49.5q-139 0 -248 36l45 232q91 -27 154 -27q101 0 165 56.5t64 160.5 q0 111 -74 167.5t-198 56.5h-84v239h41q100 0 161.5 58.5t61.5 154.5q0 103 -64 164t-174 61q-108 0 -169.5 -63t-61.5 -182v-1094h-301z" />
<glyph unicode="&#xe0;" horiz-adv-x="1159" d="M80 266q0 348 635 393v97q0 131 -152 131q-127 0 -350 -109l-107 221q248 125 469 125q227 0 333 -100.5t106 -278.5v-458q0 -86 90 -86v-207q-156 0 -232.5 28.5t-121.5 106.5q-72 -77 -154 -115.5t-188 -38.5q-145 0 -236.5 80.5t-91.5 210.5zM268 1460l203 133 l260 -381h-188zM379 301q0 -50 35 -80.5t92 -30.5q127 0 209 93v211q-336 -20 -336 -193z" />
<glyph unicode="&#xe1;" horiz-adv-x="1159" d="M80 266q0 348 635 393v97q0 131 -152 131q-127 0 -350 -109l-107 221q248 125 469 125q227 0 333 -100.5t106 -278.5v-458q0 -86 90 -86v-207q-156 0 -232.5 28.5t-121.5 106.5q-72 -77 -154 -115.5t-188 -38.5q-145 0 -236.5 80.5t-91.5 210.5zM379 301q0 -50 35 -80.5 t92 -30.5q127 0 209 93v211q-336 -20 -336 -193zM440 1212l262 381l201 -133l-274 -248h-189z" />
<glyph unicode="&#xe2;" horiz-adv-x="1159" d="M80 266q0 348 635 393v97q0 131 -152 131q-127 0 -350 -109l-107 221q248 125 469 125q227 0 333 -100.5t106 -278.5v-458q0 -86 90 -86v-207q-156 0 -232.5 28.5t-121.5 106.5q-72 -77 -154 -115.5t-188 -38.5q-145 0 -236.5 80.5t-91.5 210.5zM182 1212l240 328h330 l239 -328h-221l-180 185h-6l-183 -185h-219zM379 301q0 -50 35 -80.5t92 -30.5q127 0 209 93v211q-336 -20 -336 -193z" />
<glyph unicode="&#xe3;" horiz-adv-x="1159" d="M80 266q0 348 635 393v97q0 131 -152 131q-127 0 -350 -109l-107 221q248 125 469 125q227 0 333 -100.5t106 -278.5v-458q0 -86 90 -86v-207q-156 0 -232.5 28.5t-121.5 106.5q-72 -77 -154 -115.5t-188 -38.5q-145 0 -236.5 80.5t-91.5 210.5zM229 1237 q-13 137 48.5 215t173.5 78q44 0 84.5 -17t65.5 -37.5t55.5 -37.5t56.5 -17q75 0 63 95h168q15 -137 -46 -215t-173 -78q-44 0 -84 16.5t-65.5 36.5t-56 36.5t-56.5 16.5q-75 0 -66 -92h-168zM379 301q0 -50 35 -80.5t92 -30.5q127 0 209 93v211q-336 -20 -336 -193z" />
<glyph unicode="&#xe4;" horiz-adv-x="1159" d="M80 266q0 348 635 393v97q0 131 -152 131q-127 0 -350 -109l-107 221q248 125 469 125q227 0 333 -100.5t106 -278.5v-458q0 -86 90 -86v-207q-156 0 -232.5 28.5t-121.5 106.5q-72 -77 -154 -115.5t-188 -38.5q-145 0 -236.5 80.5t-91.5 210.5zM233 1260v233h240v-233 h-240zM379 301q0 -50 35 -80.5t92 -30.5q127 0 209 93v211q-336 -20 -336 -193zM702 1260v233h236v-233h-236z" />
<glyph unicode="&#xe5;" horiz-adv-x="1159" d="M80 266q0 348 635 393v97q0 131 -152 131q-127 0 -350 -109l-107 221q248 125 469 125q227 0 333 -100.5t106 -278.5v-458q0 -86 90 -86v-207q-156 0 -232.5 28.5t-121.5 106.5q-72 -77 -154 -115.5t-188 -38.5q-145 0 -236.5 80.5t-91.5 210.5zM340 1434 q0 102 71.5 169.5t174.5 67.5q102 0 173.5 -67.5t71.5 -169.5q0 -100 -71.5 -167t-173.5 -67t-174 67t-72 167zM379 301q0 -50 35 -80.5t92 -30.5q127 0 209 93v211q-336 -20 -336 -193zM459 1434q0 -53 36.5 -90t90.5 -37q52 0 89.5 37.5t37.5 89.5q0 55 -37 92t-90 37 q-54 0 -90.5 -37t-36.5 -92z" />
<glyph unicode="&#xe6;" horiz-adv-x="1830" d="M80 264q-3 347 637 389v105q0 61 -37 95t-111 34q-130 0 -356 -109l-107 221q268 127 467 127q250 0 338 -149q139 149 359 149q229 0 357 -137.5t128 -363.5q0 -56 -14 -133h-721q19 -279 270 -279q149 0 301 94l127 -190q-196 -144 -444 -144q-140 0 -253.5 50 t-186.5 145q-73 -87 -181.5 -141t-234.5 -54q-153 0 -244.5 80t-93.5 211zM381 301q0 -49 35.5 -81t91.5 -32q150 0 240 136q-25 81 -31 168q-336 -16 -336 -191zM1024 664h444q0 112 -47 178.5t-149 66.5q-94 0 -160.5 -63t-87.5 -182z" />
<glyph unicode="&#xe7;" horiz-adv-x="1079" d="M74 557q0 172 72.5 302t199 197.5t287.5 67.5q215 0 389 -135l-152 -194q-111 86 -229 86q-113 0 -188.5 -86.5t-75.5 -237.5q0 -159 75 -249.5t189 -90.5q69 0 122 22.5t109 67.5l164 -174q-170 -148 -366 -156q-29 -256 -221 -432l-205 103q91 70 159 159t91 183 q-191 41 -305.5 190t-114.5 377z" />
<glyph unicode="&#xe8;" horiz-adv-x="1196" d="M76 557q0 171 74.5 302t199 199t277.5 68q231 0 360 -137.5t129 -363.5q0 -78 -10 -133h-725q24 -279 270 -279q153 0 305 94l125 -190q-207 -144 -452 -144q-248 0 -400.5 156t-152.5 428zM305 1460l203 133l260 -381h-188zM387 664h444q0 112 -47 178.5t-149 66.5 q-94 0 -160.5 -63.5t-87.5 -181.5z" />
<glyph unicode="&#xe9;" horiz-adv-x="1196" d="M76 557q0 171 74.5 302t199 199t277.5 68q231 0 360 -137.5t129 -363.5q0 -78 -10 -133h-725q24 -279 270 -279q153 0 305 94l125 -190q-207 -144 -452 -144q-248 0 -400.5 156t-152.5 428zM387 664h444q0 112 -47 178.5t-149 66.5q-94 0 -160.5 -63.5t-87.5 -181.5z M477 1212l262 381l201 -133l-274 -248h-189z" />
<glyph unicode="&#xea;" horiz-adv-x="1196" d="M76 557q0 171 74.5 302t199 199t277.5 68q231 0 360 -137.5t129 -363.5q0 -78 -10 -133h-725q24 -279 270 -279q153 0 305 94l125 -190q-207 -144 -452 -144q-248 0 -400.5 156t-152.5 428zM225 1212l240 328h330l239 -328h-221l-180 185h-6l-183 -185h-219zM387 664h444 q0 112 -47 178.5t-149 66.5q-94 0 -160.5 -63.5t-87.5 -181.5z" />
<glyph unicode="&#xeb;" horiz-adv-x="1196" d="M76 557q0 171 74.5 302t199 199t277.5 68q231 0 360 -137.5t129 -363.5q0 -78 -10 -133h-725q24 -279 270 -279q153 0 305 94l125 -190q-207 -144 -452 -144q-248 0 -400.5 156t-152.5 428zM276 1260v233h240v-233h-240zM387 664h444q0 112 -47 178.5t-149 66.5 q-94 0 -160.5 -63.5t-87.5 -181.5zM745 1260v233h236v-233h-236z" />
<glyph unicode="&#xec;" horiz-adv-x="557" d="M-41 1460l203 133l260 -381h-189zM129 0v1083h301v-1083h-301z" />
<glyph unicode="&#xed;" horiz-adv-x="557" d="M129 0v1083h301v-1083h-301zM131 1212l262 381l201 -133l-275 -248h-188z" />
<glyph unicode="&#xee;" horiz-adv-x="557" d="M-127 1212l240 328h329l240 -328h-221l-180 185h-7l-182 -185h-219zM129 0v1083h301v-1083h-301z" />
<glyph unicode="&#xef;" horiz-adv-x="557" d="M-74 1260v233h240v-233h-240zM129 0v1083h301v-1083h-301zM395 1260v233h236v-233h-236z" />
<glyph unicode="&#xf0;" d="M86 483q0 208 129.5 339.5t325.5 131.5q146 0 268 -82q-63 151 -201 316l-272 -113l-72 152q132 51 228 88q-62 64 -252 231h356q65 -57 139 -131l199 86l70 -155q-76 -31 -150 -62q147 -179 230 -370t83 -377q0 -273 -146 -417.5t-392 -144.5q-254 0 -398.5 142.5 t-144.5 365.5zM387 483q0 -127 65.5 -207.5t176.5 -80.5q110 0 176.5 87t66.5 242q0 75 -8 135q-62 50 -121.5 72.5t-132.5 22.5q-97 0 -160 -69t-63 -202z" />
<glyph unicode="&#xf1;" horiz-adv-x="1222" d="M125 0v1100h283l14 -127q65 68 151 110.5t183 42.5q350 0 350 -399v-727h-301v735q0 77 -35 121.5t-108 44.5q-134 0 -238 -129v-772h-299zM254 1237q-13 137 48 215t173 78q44 0 84.5 -17t65.5 -37.5t55.5 -37.5t56.5 -17q76 0 64 95h168q15 -137 -46 -215t-173 -78 q-44 0 -84.5 16.5t-65.5 36.5t-56 36.5t-57 16.5q-74 0 -65 -92h-168z" />
<glyph unicode="&#xf2;" d="M76 561q0 167 72.5 296t198.5 198t284 69q117 0 218 -40.5t174 -113t115 -178.5t42 -231q0 -269 -150.5 -427.5t-398.5 -158.5q-251 0 -403 158.5t-152 427.5zM307 1460l203 133l260 -381h-188zM379 559q0 -165 66 -261.5t186 -96.5q116 0 181 96.5t65 261.5 q0 152 -68 245t-178 93q-114 0 -183 -93t-69 -245z" />
<glyph unicode="&#xf3;" d="M76 561q0 167 72.5 296t198.5 198t284 69q117 0 218 -40.5t174 -113t115 -178.5t42 -231q0 -269 -150.5 -427.5t-398.5 -158.5q-251 0 -403 158.5t-152 427.5zM379 559q0 -165 66 -261.5t186 -96.5q116 0 181 96.5t65 261.5q0 152 -68 245t-178 93q-114 0 -183 -93 t-69 -245zM479 1212l262 381l201 -133l-274 -248h-189z" />
<glyph unicode="&#xf4;" d="M76 561q0 167 72.5 296t198.5 198t284 69q117 0 218 -40.5t174 -113t115 -178.5t42 -231q0 -269 -150.5 -427.5t-398.5 -158.5q-251 0 -403 158.5t-152 427.5zM223 1212l240 328h330l239 -328h-221l-180 185h-6l-183 -185h-219zM379 559q0 -165 66 -261.5t186 -96.5 q116 0 181 96.5t65 261.5q0 152 -68 245t-178 93q-114 0 -183 -93t-69 -245z" />
<glyph unicode="&#xf5;" d="M76 561q0 167 72.5 296t198.5 198t284 69q117 0 218 -40.5t174 -113t115 -178.5t42 -231q0 -269 -150.5 -427.5t-398.5 -158.5q-251 0 -403 158.5t-152 427.5zM268 1237q-13 137 48 215t173 78q44 0 85 -17t66 -37.5t55.5 -37.5t56.5 -17q75 0 63 95h168 q15 -137 -46 -215t-173 -78q-44 0 -84 16.5t-65.5 36.5t-56 36.5t-56.5 16.5q-75 0 -66 -92h-168zM379 559q0 -165 66 -261.5t186 -96.5q116 0 181 96.5t65 261.5q0 152 -68 245t-178 93q-114 0 -183 -93t-69 -245z" />
<glyph unicode="&#xf6;" d="M76 561q0 167 72.5 296t198.5 198t284 69q117 0 218 -40.5t174 -113t115 -178.5t42 -231q0 -269 -150.5 -427.5t-398.5 -158.5q-251 0 -403 158.5t-152 427.5zM274 1260v233h240v-233h-240zM379 559q0 -165 66 -261.5t186 -96.5q116 0 181 96.5t65 261.5q0 152 -68 245 t-178 93q-114 0 -183 -93t-69 -245zM743 1260v233h236v-233h-236z" />
<glyph unicode="&#xf7;" horiz-adv-x="1259" d="M78 428v248h1104v-248h-1104zM502 29v229h256v-229h-256zM502 846v229h256v-229h-256z" />
<glyph unicode="&#xf8;" d="M76 -10l133 164q-133 155 -133 407q0 167 72.5 296t198.5 198t284 69q155 0 282 -73l113 145l127 -100l-115 -142q142 -158 142 -393q0 -269 -150.5 -427.5t-398.5 -158.5q-173 0 -301 78l-123 -159zM379 559q0 -101 24 -178l365 467q-62 49 -137 49q-114 0 -183 -93 t-69 -245zM477 258q60 -57 154 -57q116 0 181 96.5t65 261.5q0 88 -31 172z" />
<glyph unicode="&#xf9;" horiz-adv-x="1224" d="M119 373v727h301v-733q0 -166 141 -166q131 0 240 125v774h301v-1100h-279l-18 127q-65 -67 -153 -109.5t-183 -42.5q-350 0 -350 398zM266 1460l203 133l260 -381h-188z" />
<glyph unicode="&#xfa;" horiz-adv-x="1224" d="M119 373v727h301v-733q0 -166 141 -166q131 0 240 125v774h301v-1100h-279l-18 127q-65 -67 -153 -109.5t-183 -42.5q-350 0 -350 398zM475 1212l262 381l201 -133l-274 -248h-189z" />
<glyph unicode="&#xfb;" horiz-adv-x="1224" d="M119 373v727h301v-733q0 -166 141 -166q131 0 240 125v774h301v-1100h-279l-18 127q-65 -67 -153 -109.5t-183 -42.5q-350 0 -350 398zM207 1212l239 328h330l240 -328h-221l-181 185h-6l-182 -185h-219z" />
<glyph unicode="&#xfc;" horiz-adv-x="1224" d="M119 373v727h301v-733q0 -166 141 -166q131 0 240 125v774h301v-1100h-279l-18 127q-65 -67 -153 -109.5t-183 -42.5q-350 0 -350 398zM258 1260v233h240v-233h-240zM727 1260v233h236v-233h-236z" />
<glyph unicode="&#xfd;" horiz-adv-x="1138" d="M18 -389l82 233q96 -34 150 -34q58 0 91 24t54 86l35 92l-399 1088h301l241 -725h5l239 725h291l-410 -1161q-39 -109 -83.5 -182t-98.5 -113.5t-112.5 -57t-135.5 -16.5q-125 0 -250 41zM428 1212l262 381l201 -133l-275 -248h-188z" />
<glyph unicode="&#xfe;" horiz-adv-x="1249" d="M131 -410v1956h299v-577q132 155 318 155q195 0 310.5 -145t115.5 -416q0 -282 -115.5 -435t-304.5 -153q-185 0 -324 142v-527h-299zM430 313q53 -57 105.5 -82.5t121.5 -25.5q105 0 161 95.5t56 260.5q0 163 -55 248.5t-162 85.5q-124 0 -227 -115v-467z" />
<glyph unicode="&#xff;" horiz-adv-x="1138" d="M18 -389l82 233q96 -34 150 -34q58 0 91 24t54 86l35 92l-399 1088h301l241 -725h5l239 725h291l-410 -1161q-39 -109 -83.5 -182t-98.5 -113.5t-112.5 -57t-135.5 -16.5q-125 0 -250 41zM219 1260v233h240v-233h-240zM688 1260v233h236v-233h-236z" />
<glyph unicode="&#x152;" horiz-adv-x="2406" d="M86 729q0 148 53.5 282t147.5 232.5t229 156.5t291 58q136 0 249.5 -50t192.5 -142v168h1043v-271h-733v-311h653v-248h-653v-334h743v-270h-1053v164q-77 -91 -190 -140t-252 -49q-213 0 -378 98.5t-254 270t-89 385.5zM399 729q0 -218 114.5 -354.5t309.5 -136.5 t310.5 137.5t115.5 353.5q0 130 -53 236t-151 168.5t-222 62.5q-125 0 -222.5 -62.5t-149.5 -168.5t-52 -236z" />
<glyph unicode="&#x153;" horiz-adv-x="1992" d="M76 561q0 167 73 296.5t199.5 199t284.5 69.5q131 0 230.5 -52t160.5 -150q66 97 169.5 149.5t231.5 52.5q233 0 362.5 -137.5t129.5 -363.5q0 -67 -12 -133h-721q8 -137 75 -208t191 -71q155 0 303 94l129 -190q-203 -144 -444 -144q-282 0 -412 199 q-132 -199 -393 -199q-251 0 -404 160t-153 428zM381 561q0 -167 65 -263.5t185 -96.5q116 0 181 97t65 263q0 153 -67 245.5t-179 92.5q-114 0 -182 -92.5t-68 -245.5zM1186 664h444q0 112 -47.5 178.5t-150.5 66.5q-92 0 -157.5 -63t-88.5 -182z" />
<glyph unicode="&#x178;" horiz-adv-x="1439" d="M27 1434h358l334 -553h4l336 553h354l-536 -859v-575h-314v575zM362 1565v235h238v-235h-238zM844 1565v235h237v-235h-237z" />
<glyph unicode="&#x2c6;" horiz-adv-x="1280" d="M256 1212l240 328h329l240 -328h-221l-180 185h-7l-182 -185h-219z" />
<glyph unicode="&#x2dc;" horiz-adv-x="1261" d="M283 1237q-13 137 48 215t173 78q44 0 84.5 -17t65.5 -37.5t55.5 -37.5t56.5 -17q75 0 63 95h168q15 -137 -46 -215t-173 -78q-44 0 -84 16.5t-65.5 36.5t-56 36.5t-56.5 16.5q-74 0 -65 -92h-168z" />
<glyph unicode="&#x2000;" horiz-adv-x="926" />
<glyph unicode="&#x2001;" horiz-adv-x="1853" />
<glyph unicode="&#x2002;" horiz-adv-x="926" />
<glyph unicode="&#x2003;" horiz-adv-x="1853" />
<glyph unicode="&#x2004;" horiz-adv-x="617" />
<glyph unicode="&#x2005;" horiz-adv-x="463" />
<glyph unicode="&#x2006;" horiz-adv-x="308" />
<glyph unicode="&#x2007;" horiz-adv-x="308" />
<glyph unicode="&#x2008;" horiz-adv-x="231" />
<glyph unicode="&#x2009;" horiz-adv-x="370" />
<glyph unicode="&#x200a;" horiz-adv-x="102" />
<glyph unicode="&#x2010;" horiz-adv-x="788" d="M76 426v252h637v-252h-637z" />
<glyph unicode="&#x2011;" horiz-adv-x="788" d="M76 426v252h637v-252h-637z" />
<glyph unicode="&#x2012;" horiz-adv-x="788" d="M76 426v252h637v-252h-637z" />
<glyph unicode="&#x2013;" horiz-adv-x="1280" d="M78 426v252h1124v-252h-1124z" />
<glyph unicode="&#x2014;" horiz-adv-x="1851" d="M86 426v252h1677v-252h-1677z" />
<glyph unicode="&#x2018;" horiz-adv-x="503" d="M96 825v240q0 157 64 246.5t200 134.5l62 -115q-73 -28 -111.5 -77.5t-38.5 -114.5h136v-314h-312z" />
<glyph unicode="&#x2019;" horiz-adv-x="503" d="M82 928q73 28 111 77.5t38 114.5h-135v314h312v-240q0 -157 -64.5 -246.5t-200.5 -134.5z" />
<glyph unicode="&#x201a;" horiz-adv-x="503" d="M82 -193q73 27 111 77.5t38 115.5h-135v313h312v-239q0 -157 -64.5 -246.5t-200.5 -134.5z" />
<glyph unicode="&#x201c;" horiz-adv-x="980" d="M96 825v240q0 157 64 246.5t200 134.5l62 -115q-73 -28 -111.5 -77.5t-38.5 -114.5h136v-314h-312zM573 825v240q0 157 64.5 246.5t200.5 134.5l61 -115q-73 -28 -111 -77.5t-38 -114.5h135v-314h-312z" />
<glyph unicode="&#x201d;" horiz-adv-x="980" d="M82 928q73 28 111 77.5t38 114.5h-135v314h312v-240q0 -157 -64.5 -246.5t-200.5 -134.5zM559 928q73 28 111.5 77.5t38.5 114.5h-136v314h312v-240q0 -157 -64 -246.5t-200 -134.5z" />
<glyph unicode="&#x201e;" horiz-adv-x="980" d="M82 -193q73 27 111 77.5t38 115.5h-135v313h312v-239q0 -157 -64.5 -246.5t-200.5 -134.5zM559 -193q73 28 111.5 78t38.5 115h-136v313h312v-239q0 -157 -64 -246.5t-200 -134.5z" />
<glyph unicode="&#x2022;" horiz-adv-x="1155" d="M260 553q0 130 93.5 223.5t224.5 93.5q132 0 225.5 -93t93.5 -224q0 -132 -93.5 -226t-225.5 -94q-131 0 -224.5 94t-93.5 226z" />
<glyph unicode="&#x2026;" horiz-adv-x="1605" d="M96 0v313h312v-313h-312zM647 0v313h311v-313h-311zM1200 0v313h311v-313h-311z" />
<glyph unicode="&#x202f;" horiz-adv-x="370" />
<glyph unicode="&#x2039;" horiz-adv-x="784" d="M80 555l409 547l197 -148l-319 -399l319 -410l-197 -145z" />
<glyph unicode="&#x203a;" horiz-adv-x="784" d="M98 145l320 410l-320 399l197 148l410 -547l-410 -555z" />
<glyph unicode="&#x205f;" horiz-adv-x="463" />
<glyph unicode="&#x20ac;" horiz-adv-x="1316" d="M51 354v160h162q-2 20 -2 64q0 42 2 65h-162v160h197q61 173 209.5 276t349.5 103q264 0 434 -170l-168 -178q-49 49 -114.5 77.5t-137.5 28.5q-94 0 -165 -39.5t-111 -112.5h301v-145h-344q-4 -46 -4 -65q0 -44 4 -64h344v-143h-297q43 -74 116 -114t166 -40 q155 0 246 102l180 -163q-172 -181 -442 -181q-200 0 -350.5 103t-214.5 276h-199z" />
<glyph unicode="&#x2122;" horiz-adv-x="1814" d="M70 1266v168h712v-168h-254v-590h-202v590h-256zM897 676v758h197l211 -273l206 273h199v-758h-201v454l-200 -258l-211 263v-459h-201z" />
<glyph unicode="&#xe000;" horiz-adv-x="1095" d="M0 0v1096h1096v-1096h-1096z" />
</font>
</defs>
</svg>
